<mxfile host="app.diagrams.net" modified="2023-09-06T07:31:57.976Z" agent="Mozilla/5.0 (Macintosh; Intel Mac OS X 10_15_7) AppleWebKit/537.36 (KHTML, like Gecko) Chrome/115.0.0.0 Safari/537.36" etag="WFn0tGDpOsN7msy9v7fH" version="21.7.2" type="github">
  <diagram name="第 1 页" id="2MmGTxQ1Dcn6B8rSR8ZZ">
    <mxGraphModel dx="1076" dy="595" grid="1" gridSize="10" guides="1" tooltips="1" connect="1" arrows="1" fold="1" page="1" pageScale="1" pageWidth="827" pageHeight="1169" math="0" shadow="0">
      <root>
        <mxCell id="0" />
        <mxCell id="1" parent="0" />
        <mxCell id="rRF4Ga6wsScSnT-rY39V-12" value="" style="rounded=0;whiteSpace=wrap;html=1;" vertex="1" parent="1">
          <mxGeometry x="460" y="230" width="370" height="330" as="geometry" />
        </mxCell>
        <mxCell id="rRF4Ga6wsScSnT-rY39V-5" style="edgeStyle=orthogonalEdgeStyle;rounded=0;orthogonalLoop=1;jettySize=auto;html=1;entryX=0;entryY=0.5;entryDx=0;entryDy=0;" edge="1" parent="1" source="rRF4Ga6wsScSnT-rY39V-1" target="rRF4Ga6wsScSnT-rY39V-2">
          <mxGeometry relative="1" as="geometry" />
        </mxCell>
        <mxCell id="rRF4Ga6wsScSnT-rY39V-1" value="Space Jenkins" style="rounded=1;whiteSpace=wrap;html=1;fillColor=#dae8fc;strokeColor=#6c8ebf;" vertex="1" parent="1">
          <mxGeometry x="150" y="310" width="120" height="60" as="geometry" />
        </mxCell>
        <mxCell id="rRF4Ga6wsScSnT-rY39V-9" style="edgeStyle=orthogonalEdgeStyle;rounded=0;orthogonalLoop=1;jettySize=auto;html=1;entryX=0;entryY=0.5;entryDx=0;entryDy=0;" edge="1" parent="1" source="rRF4Ga6wsScSnT-rY39V-2" target="rRF4Ga6wsScSnT-rY39V-6">
          <mxGeometry relative="1" as="geometry" />
        </mxCell>
        <mxCell id="rRF4Ga6wsScSnT-rY39V-2" value="Task" style="rounded=1;whiteSpace=wrap;html=1;fillColor=#ffe6cc;strokeColor=#d79b00;" vertex="1" parent="1">
          <mxGeometry x="490" y="310" width="120" height="60" as="geometry" />
        </mxCell>
        <mxCell id="rRF4Ga6wsScSnT-rY39V-3" value="(repo_addr, commit_id, ...)" style="text;html=1;strokeColor=none;fillColor=none;align=center;verticalAlign=middle;whiteSpace=wrap;rounded=0;" vertex="1" parent="1">
          <mxGeometry x="270" y="300" width="200" height="30" as="geometry" />
        </mxCell>
        <mxCell id="rRF4Ga6wsScSnT-rY39V-10" style="edgeStyle=orthogonalEdgeStyle;rounded=0;orthogonalLoop=1;jettySize=auto;html=1;entryX=1;entryY=0.5;entryDx=0;entryDy=0;" edge="1" parent="1" source="rRF4Ga6wsScSnT-rY39V-6" target="rRF4Ga6wsScSnT-rY39V-7">
          <mxGeometry relative="1" as="geometry">
            <Array as="points">
              <mxPoint x="740" y="480" />
            </Array>
          </mxGeometry>
        </mxCell>
        <mxCell id="rRF4Ga6wsScSnT-rY39V-6" value="SAST Scanner" style="rounded=1;whiteSpace=wrap;html=1;fillColor=#ffe6cc;strokeColor=#d79b00;" vertex="1" parent="1">
          <mxGeometry x="680" y="310" width="120" height="60" as="geometry" />
        </mxCell>
        <mxCell id="rRF4Ga6wsScSnT-rY39V-11" style="edgeStyle=orthogonalEdgeStyle;rounded=0;orthogonalLoop=1;jettySize=auto;html=1;" edge="1" parent="1" source="rRF4Ga6wsScSnT-rY39V-7" target="rRF4Ga6wsScSnT-rY39V-8">
          <mxGeometry relative="1" as="geometry" />
        </mxCell>
        <mxCell id="rRF4Ga6wsScSnT-rY39V-7" value="Email Sender" style="rounded=1;whiteSpace=wrap;html=1;fillColor=#ffe6cc;strokeColor=#d79b00;" vertex="1" parent="1">
          <mxGeometry x="490" y="450" width="120" height="60" as="geometry" />
        </mxCell>
        <mxCell id="rRF4Ga6wsScSnT-rY39V-8" value="Committer" style="rounded=1;whiteSpace=wrap;html=1;fillColor=#d5e8d4;strokeColor=#82b366;" vertex="1" parent="1">
          <mxGeometry x="150" y="450" width="120" height="60" as="geometry" />
        </mxCell>
        <mxCell id="rRF4Ga6wsScSnT-rY39V-13" value="Code Scan Service" style="text;html=1;strokeColor=none;fillColor=none;align=center;verticalAlign=middle;whiteSpace=wrap;rounded=0;" vertex="1" parent="1">
          <mxGeometry x="570" y="250" width="150" height="30" as="geometry" />
        </mxCell>
      </root>
    </mxGraphModel>
  </diagram>
</mxfile>
